<?xml version="1.0" encoding="UTF-8" standalone="no"?>
<!DOCTYPE svg PUBLIC "-//W3C//DTD SVG 1.1//EN" "http://www.w3.org/Graphics/SVG/1.1/DTD/svg11.dtd">
<svg version="1.1" xmlns="http://www.w3.org/2000/svg" xmlns:xlink="http://www.w3.org/1999/xlink" preserveAspectRatio="xMidYMid meet" viewBox="0 0 640 640" width="640" height="640"><defs><path d="M345.42 11.03L357.93 12.3L370.28 14.06L382.48 16.3L394.5 19.01L406.34 22.18L417.98 25.8L429.43 29.87L440.67 34.36L451.68 39.28L462.46 44.6L473 50.33L483.29 56.45L493.32 62.94L503.08 69.81L512.56 77.04L521.74 84.62L530.63 92.54L539.2 100.8L547.46 109.37L555.38 118.26L562.96 127.44L570.19 136.92L577.06 146.68L583.55 156.71L589.67 167L595.4 177.54L600.72 188.32L605.64 199.33L610.13 210.57L614.2 222.02L617.82 233.66L620.99 245.5L623.7 257.52L625.94 269.72L627.7 282.07L628.97 294.58L629.74 307.22L630 320L629.74 332.78L628.97 345.42L627.7 357.93L625.94 370.28L623.7 382.48L620.99 394.5L617.82 406.34L614.2 417.98L610.13 429.43L605.64 440.67L600.72 451.68L595.4 462.46L589.67 473L583.55 483.29L577.06 493.32L570.19 503.08L562.96 512.56L555.38 521.74L547.46 530.63L539.2 539.2L530.63 547.46L521.74 555.38L512.56 562.96L503.08 570.19L493.32 577.06L483.29 583.55L473 589.67L462.46 595.4L451.68 600.72L440.67 605.64L429.43 610.13L417.98 614.2L406.34 617.82L394.5 620.99L382.48 623.7L370.28 625.94L357.93 627.7L345.42 628.97L332.78 629.74L320 630L307.22 629.74L294.58 628.97L282.07 627.7L269.72 625.94L257.52 623.7L245.5 620.99L233.66 617.82L222.02 614.2L210.57 610.13L199.33 605.64L188.32 600.72L177.54 595.4L167 589.67L156.71 583.55L146.68 577.06L136.92 570.19L127.44 562.96L118.26 555.38L109.37 547.46L100.8 539.2L92.54 530.63L84.62 521.74L77.04 512.56L69.81 503.08L62.94 493.32L56.45 483.29L50.33 473L44.6 462.46L39.28 451.68L34.36 440.67L29.87 429.43L25.8 417.98L22.18 406.34L19.01 394.5L16.3 382.48L14.06 370.28L12.3 357.93L11.03 345.42L10.26 332.78L10 320L10.26 307.22L11.03 294.58L12.3 282.07L14.06 269.72L16.3 257.52L19.01 245.5L22.18 233.66L25.8 222.02L29.87 210.57L34.36 199.33L39.28 188.32L44.6 177.54L50.33 167L56.45 156.71L62.94 146.68L69.81 136.92L77.04 127.44L84.62 118.26L92.54 109.37L100.8 100.8L109.37 92.54L118.26 84.62L127.44 77.04L136.92 69.81L146.68 62.94L156.71 56.45L167 50.33L177.54 44.6L188.32 39.28L199.33 34.36L210.57 29.87L222.02 25.8L233.66 22.18L245.5 19.01L257.52 16.3L269.72 14.06L282.07 12.3L294.58 11.03L307.22 10.26L320 10L332.78 10.26L345.42 11.03ZM470.18 191.78L469.42 191.85L468.66 191.95L467.9 192.08L467.14 192.24L466.39 192.43L465.65 192.65L464.92 192.9L464.19 193.18L463.47 193.49L462.77 193.83L462.07 194.19L461.38 194.59L460.71 195.01L460.05 195.47L459.41 195.95L458.78 196.46L458.17 197L457.57 197.58L270 385.15L182.43 297.57L181.83 297L181.22 296.46L180.59 295.95L179.95 295.47L179.29 295.01L178.62 294.59L177.93 294.19L177.24 293.82L176.53 293.49L175.81 293.18L175.08 292.9L174.35 292.65L173.61 292.43L172.86 292.24L172.1 292.08L171.35 291.95L170.58 291.85L169.82 291.77L169.05 291.73L168.28 291.72L167.52 291.73L166.75 291.77L165.98 291.85L165.22 291.95L164.46 292.08L163.71 292.24L162.96 292.43L162.22 292.65L161.48 292.9L160.76 293.18L160.04 293.49L159.33 293.82L158.64 294.19L157.95 294.59L157.28 295.01L156.62 295.47L155.98 295.95L155.35 296.46L154.74 297L154.14 297.57L125.86 325.86L125.29 326.45L124.74 327.06L124.23 327.69L123.75 328.34L123.29 328.99L122.87 329.67L122.47 330.35L122.11 331.05L121.77 331.76L121.46 332.47L121.19 333.2L120.94 333.93L120.72 334.68L120.53 335.43L120.37 336.18L120.23 336.94L120.13 337.7L120.06 338.47L120.01 339.23L120 340L120.01 340.77L120.06 341.53L120.13 342.3L120.23 343.06L120.37 343.82L120.53 344.57L120.72 345.32L120.94 346.06L121.19 346.8L121.46 347.53L121.77 348.24L122.11 348.95L122.47 349.65L122.87 350.33L123.29 351L123.75 351.66L124.23 352.31L124.74 352.93L125.29 353.55L125.86 354.14L208.23 436.51L238.59 466.88L255.86 484.14L256.45 484.71L257.06 485.25L257.69 485.77L258.34 486.25L259 486.7L259.67 487.13L260.35 487.52L261.05 487.89L261.76 488.23L262.47 488.54L263.2 488.81L263.94 489.06L264.68 489.28L265.43 489.47L266.18 489.63L266.94 489.77L267.7 489.87L268.47 489.94L269.23 489.99L270 490L270.77 489.99L271.53 489.94L272.3 489.87L273.06 489.77L273.82 489.63L274.57 489.47L275.32 489.28L276.06 489.06L276.8 488.81L277.53 488.54L278.24 488.23L278.95 487.89L279.65 487.53L280.33 487.13L281 486.71L281.66 486.25L282.31 485.77L282.94 485.26L283.55 484.71L284.14 484.14L514.14 254.14L514.71 253.55L515.26 252.94L515.77 252.31L516.25 251.66L516.71 251.01L517.13 250.33L517.53 249.65L517.89 248.95L518.23 248.24L518.54 247.53L518.81 246.8L519.06 246.07L519.28 245.32L519.47 244.57L519.63 243.82L519.77 243.06L519.87 242.3L519.94 241.53L519.99 240.77L520 240L519.99 239.23L519.94 238.47L519.87 237.7L519.77 236.94L519.63 236.18L519.47 235.43L519.28 234.68L519.06 233.94L518.81 233.2L518.54 232.47L518.23 231.76L517.89 231.05L517.53 230.35L517.13 229.67L516.71 229L516.25 228.34L515.77 227.69L515.26 227.07L514.71 226.45L514.14 225.86L485.86 197.58L485.26 197L484.65 196.46L484.02 195.95L483.38 195.47L482.72 195.01L482.05 194.59L481.36 194.19L480.67 193.83L479.96 193.49L479.24 193.18L478.52 192.9L477.78 192.65L477.04 192.43L476.29 192.24L475.54 192.08L474.78 191.95L474.02 191.85L473.25 191.78L472.48 191.73L471.72 191.72L470.95 191.73L470.18 191.78Z" id="a27dMtNXmX"></path></defs><g><g><g><use xlink:href="#a27dMtNXmX" opacity="1" fill="#4bb543" fill-opacity="1"></use><g><use xlink:href="#a27dMtNXmX" opacity="1" fill-opacity="0" stroke="#000000" stroke-width="1" stroke-opacity="0"></use></g></g></g></g></svg>