<?xml version="1.0" encoding="UTF-8" standalone="no"?>
<!-- Created with Inkscape (http://www.inkscape.org/) -->

<svg
   xmlns:dc="http://purl.org/dc/elements/1.1/"
   xmlns:cc="http://creativecommons.org/ns#"
   xmlns:rdf="http://www.w3.org/1999/02/22-rdf-syntax-ns#"
   xmlns:svg="http://www.w3.org/2000/svg"
   xmlns="http://www.w3.org/2000/svg"
   xmlns:sodipodi="http://sodipodi.sourceforge.net/DTD/sodipodi-0.dtd"
   xmlns:inkscape="http://www.inkscape.org/namespaces/inkscape"
   version="1.1"
   width="299.99988"
   height="87.506996"
   id="svg2"
   xml:space="preserve"
   sodipodi:docname="fh_aachen.svg"
   inkscape:version="0.92.4 (5da689c313, 2019-01-14)"><sodipodi:namedview
     pagecolor="#ffffff"
     bordercolor="#666666"
     borderopacity="1"
     objecttolerance="10"
     gridtolerance="10"
     guidetolerance="10"
     inkscape:pageopacity="0"
     inkscape:pageshadow="2"
     inkscape:window-width="1920"
     inkscape:window-height="1017"
     id="namedview161"
     showgrid="false"
     inkscape:zoom="0.78666699"
     inkscape:cx="199.99997"
     inkscape:cy="93.754422"
     inkscape:window-x="-8"
     inkscape:window-y="300"
     inkscape:window-maximized="1"
     inkscape:current-layer="svg2" /><metadata
     id="metadata8"><rdf:RDF><cc:Work
         rdf:about=""><dc:format>image/svg+xml</dc:format><dc:type
           rdf:resource="http://purl.org/dc/dcmitype/StillImage" /><dc:title /></cc:Work></rdf:RDF></metadata><defs
     id="defs6"><clipPath
       id="clipPath20"><path
         d="M 0,22.49 H 34.016 V 124.537 L 0,124.537 Z"
         id="path22"
         inkscape:connector-curvature="0" /></clipPath><clipPath
       id="clipPath314"><path
         d="M 0,0 H 419.528 V 595.276 H 0 Z"
         id="path316"
         inkscape:connector-curvature="0" /></clipPath><clipPath
       id="clipPath332"><path
         d="M 0,0 H 419.528 V 595.276 H 0 Z"
         id="path334"
         inkscape:connector-curvature="0" /></clipPath><clipPath
       id="clipPath346"><path
         d="M 0,402.52 H 419.528 V 595.276 H 0 Z"
         id="path348"
         inkscape:connector-curvature="0" /></clipPath></defs><g
     transform="matrix(0,1.25,1.25,0,58.108073,25.149688)"
     id="g10"><g
       transform="matrix(2.3518566,0,0,2.3518566,-20.11975,193.27545)"
       id="g12"><path
         d="m 0,0 v -101.843 h 11.236 v 33.811 l 0.102,0.102 v 34.016 l -0.102,0.103 V 0 Z"
         id="path14"
         style="fill:#ffffff;fill-opacity:1;fill-rule:nonzero;stroke:none"
         inkscape:connector-curvature="0" /></g><g
       transform="matrix(2.3518566,0,0,2.3518566,-20.11975,-99.379713)"
       id="g16"><g
         clip-path="url(#clipPath20)"
         id="g18"><g
           transform="translate(28.0564,22.5923)"
           id="g24"><path
             d="M 0,0 H -2.77 V 0.191 H 0 c 0.961,0 1.429,0.448 1.429,1.367 C 1.429,2.462 0.948,2.92 0,2.92 H -2.77 V 3.11 H 0 C 1.08,3.11 1.606,2.603 1.606,1.558 1.606,0.508 1.08,0 0,0"
             id="path26"
             style="fill:#ffffff;fill-opacity:1;fill-rule:nonzero;stroke:none"
             inkscape:connector-curvature="0" /></g><g
           transform="translate(29.5791,27.1297)"
           id="g28"><path
             d="m 0,0 h -4.292 v 0.233 l 3.347,2.218 0.407,0.264 c 0.037,0.025 0.051,0.078 0.039,0.121 -0.014,0.045 -0.058,0.079 -0.105,0.079 L -1.082,2.903 -4.292,2.897 V 3.044 H 0 V 2.911 L -3.433,0.612 -3.84,0.348 C -3.878,0.323 -3.891,0.272 -3.878,0.229 -3.865,0.185 -3.82,0.149 -3.775,0.149 L -3.29,0.155 H 0 Z"
             id="path30"
             style="fill:#ffffff;fill-opacity:1;fill-rule:nonzero;stroke:none"
             inkscape:connector-curvature="0" /></g><path
           d="m 29.579,31.703 h -4.292 v 0.191 h 4.292 z"
           id="path32"
           style="fill:#ffffff;fill-opacity:1;fill-rule:nonzero;stroke:none"
           inkscape:connector-curvature="0" /><g
           transform="translate(25.2863,33.0989)"
           id="g34"><path
             d="m 0,0 v 0.218 l 3.59,1.26 0.457,0.147 c 0.042,0.014 0.071,0.063 0.071,0.107 0,0.044 -0.027,0.092 -0.069,0.106 L 3.594,1.989 0,3.248 V 3.443 L 4.293,1.88 V 1.562 Z"
             id="path36"
             style="fill:#ffffff;fill-opacity:1;fill-rule:nonzero;stroke:none"
             inkscape:connector-curvature="0" /></g><g
           transform="translate(29.5776,37.711)"
           id="g38"><path
             d="m 0,0 h -4.292 v 2.451 l 0.166,0.008 V 0.287 c 0,-0.056 0.046,-0.102 0.102,-0.102 h 1.601 c 0.056,0 0.103,0.046 0.103,0.102 v 1.872 h 0.133 V 0.287 c 0,-0.056 0.047,-0.102 0.103,-0.102 h 1.814 c 0.056,0 0.103,0.046 0.103,0.102 V 2.568 L 0,2.558 Z"
             id="path40"
             style="fill:#ffffff;fill-opacity:1;fill-rule:nonzero;stroke:none"
             inkscape:connector-curvature="0" /></g><g
           transform="translate(29.5776,41.4793)"
           id="g42"><path
             d="m 0,0 h -4.291 v 1.356 c 0,0.842 0.344,1.218 1.115,1.218 0.662,0 1.018,-0.284 1.086,-0.87 0.003,-0.035 0.025,-0.064 0.056,-0.079 0.014,-0.008 0.029,-0.011 0.045,-0.011 0.019,0 0.037,0.005 0.053,0.015 L 0,2.789 V 2.549 L -1.969,1.426 C -2,1.408 -2.02,1.375 -2.02,1.337 V 0.294 c 0,-0.055 0.047,-0.102 0.103,-0.102 H 0 Z m -3.16,2.369 c -0.68,0 -0.984,-0.313 -0.984,-1.013 V 0.294 c 0,-0.055 0.047,-0.102 0.102,-0.102 h 1.801 c 0.055,0 0.102,0.047 0.102,0.102 v 1.025 c 0,0.726 -0.315,1.05 -1.021,1.05"
             id="path44"
             style="fill:#ffffff;fill-opacity:1;fill-rule:nonzero;stroke:none"
             inkscape:connector-curvature="0" /></g><g
           transform="translate(29.3652,45.2549)"
           id="g46"><path
             d="M 0,0 -0.156,0.031 C 0.039,0.37 0.13,0.734 0.13,1.163 c 0,0.752 -0.376,1.183 -1.032,1.183 -0.644,0 -0.846,-0.576 -1.04,-1.133 -0.211,-0.606 -0.411,-1.176 -1.12,-1.176 -0.692,0 -1.089,0.473 -1.089,1.295 0,0.377 0.069,0.732 0.197,1.034 L -3.801,2.335 C -3.93,1.992 -3.989,1.685 -3.989,1.349 c 0,-0.839 0.468,-1.139 0.905,-1.139 0.602,0 0.793,0.557 0.977,1.094 0.215,0.628 0.419,1.22 1.183,1.22 0.788,0 1.222,-0.483 1.222,-1.361 C 0.298,0.738 0.199,0.347 0,0"
             id="path48"
             style="fill:#ffffff;fill-opacity:1;fill-rule:nonzero;stroke:none"
             inkscape:connector-curvature="0" /></g><path
           d="m 29.579,49.065 h -4.293 v 0.192 h 4.293 z"
           id="path50"
           style="fill:#ffffff;fill-opacity:1;fill-rule:nonzero;stroke:none"
           inkscape:connector-curvature="0" /><g
           transform="translate(25.465,50.3299)"
           id="g52"><path
             d="M 0,0 -0.179,0.006 V 3.01 L 0,3.011 V 1.7 C 0,1.644 0.046,1.597 0.102,1.597 H 4.113 V 1.407 H 0.102 C 0.046,1.407 0,1.361 0,1.305 Z"
             id="path54"
             style="fill:#ffffff;fill-opacity:1;fill-rule:nonzero;stroke:none"
             inkscape:connector-curvature="0" /></g><g
           transform="translate(25.2856,54.0396)"
           id="g56"><path
             d="M 0,0 V 0.23 L 2.05,1.316 2.478,1.53 c 0.036,0.017 0.058,0.062 0.058,0.1 0,0.041 -0.023,0.084 -0.058,0.101 L 2.047,1.94 0,3.021 V 3.234 L 2.771,1.736 4.293,1.725 v -0.2 H 2.819 Z"
             id="path58"
             style="fill:#ffffff;fill-opacity:1;fill-rule:nonzero;stroke:none"
             inkscape:connector-curvature="0" /></g><g
           transform="translate(27.4323,60.0221)"
           id="g60"><path
             d="m 0,0 c -1.617,0 -2.219,0.458 -2.219,1.691 0,1.232 0.602,1.69 2.219,1.69 1.627,0 2.232,-0.458 2.232,-1.69 C 2.232,0.458 1.627,0 0,0 m 0,3.178 c -1.509,0 -2.043,-0.39 -2.043,-1.487 0,-1.098 0.534,-1.488 2.043,-1.488 1.515,0 2.052,0.391 2.052,1.493 C 2.052,2.79 1.515,3.178 0,3.178"
             id="path62"
             style="fill:#ffffff;fill-opacity:1;fill-rule:nonzero;stroke:none"
             inkscape:connector-curvature="0" /></g><g
           transform="translate(29.5791,64.7133)"
           id="g64"><path
             d="m 0,0 h -4.293 v 2.449 l 0.179,0.007 V 0.292 c 0,-0.055 0.046,-0.102 0.102,-0.102 h 1.626 c 0.055,0 0.102,0.047 0.102,0.102 v 1.806 h 0.156 V 0.292 c 0,-0.055 0.046,-0.102 0.101,-0.102 H 0 Z"
             id="path66"
             style="fill:#ffffff;fill-opacity:1;fill-rule:nonzero;stroke:none"
             inkscape:connector-curvature="0" /></g><g
           transform="translate(29.5791,69.5099)"
           id="g68"><path
             d="M 0,0 -4.293,1.632 V 1.958 L 0,3.59 V 3.366 L -1.121,2.964 C -1.162,2.95 -1.189,2.911 -1.189,2.868 V 0.703 c 0,-0.043 0.028,-0.082 0.068,-0.096 L 0,0.207 Z M -1.439,2.844 C -1.45,2.844 -1.462,2.84 -1.473,2.837 L -3.675,2.052 -4.131,1.906 C -4.173,1.892 -4.202,1.843 -4.202,1.8 c 0,-0.044 0.027,-0.092 0.069,-0.106 L -3.674,1.538 -1.473,0.74 c 0.011,-0.002 0.023,-0.006 0.034,-0.006 0.02,0 0.04,0.006 0.058,0.019 0.028,0.018 0.044,0.049 0.044,0.083 v 1.905 c 0,0.033 -0.016,0.066 -0.044,0.084 -0.016,0.012 -0.036,0.019 -0.058,0.019"
             id="path70"
             style="fill:#ffffff;fill-opacity:1;fill-rule:nonzero;stroke:none"
             inkscape:connector-curvature="0" /></g><g
           transform="translate(29.5791,74.2622)"
           id="g72"><path
             d="m 0,0 h -4.293 v 1.33 c 0,0.968 0.358,1.362 1.236,1.362 0.87,0 1.241,-0.407 1.241,-1.362 V 0.294 c 0,-0.056 0.046,-0.102 0.102,-0.102 H 0 Z m -3.057,2.494 c -0.751,0 -1.086,-0.358 -1.086,-1.164 V 0.294 c 0,-0.056 0.046,-0.102 0.101,-0.102 h 1.985 c 0.055,0 0.101,0.046 0.101,0.102 V 1.33 c 0,0.816 -0.328,1.164 -1.101,1.164"
             id="path74"
             style="fill:#ffffff;fill-opacity:1;fill-rule:nonzero;stroke:none"
             inkscape:connector-curvature="0" /></g><g
           transform="translate(29.5791,78.144)"
           id="g76"><path
             d="m 0,0 h -4.293 v 1.332 c 0,0.966 0.358,1.36 1.236,1.36 0.87,0 1.241,-0.406 1.241,-1.36 V 0.295 c 0,-0.056 0.046,-0.102 0.102,-0.102 H 0 Z m -3.057,2.494 c -0.751,0 -1.086,-0.358 -1.086,-1.162 V 0.295 c 0,-0.056 0.046,-0.102 0.101,-0.102 h 1.985 c 0.055,0 0.101,0.046 0.101,0.102 v 1.037 c 0,0.815 -0.328,1.162 -1.101,1.162"
             id="path78"
             style="fill:#ffffff;fill-opacity:1;fill-rule:nonzero;stroke:none"
             inkscape:connector-curvature="0" /></g><g
           transform="translate(29.5791,82.0277)"
           id="g80"><path
             d="m 0,0 h -4.293 v 0.192 h 4.012 c 0.055,0 0.102,0.046 0.102,0.102 V 2.417 L 0,2.409 Z"
             id="path82"
             style="fill:#ffffff;fill-opacity:1;fill-rule:nonzero;stroke:none"
             inkscape:connector-curvature="0" /></g><path
           d="m 29.579,85.604 h -4.293 v 0.192 h 4.293 z"
           id="path84"
           style="fill:#ffffff;fill-opacity:1;fill-rule:nonzero;stroke:none"
           inkscape:connector-curvature="0" /><g
           transform="translate(29.5791,87.3392)"
           id="g86"><path
             d="m 0,0 h -4.293 v 2.451 l 0.166,0.01 V 0.287 c 0,-0.055 0.047,-0.101 0.102,-0.101 h 1.601 c 0.056,0 0.102,0.046 0.102,0.101 v 1.87 h 0.133 v -1.87 c 0,-0.055 0.047,-0.101 0.102,-0.101 h 1.816 c 0.056,0 0.103,0.046 0.103,0.101 v 2.28 L 0,2.558 Z"
             id="path88"
             style="fill:#ffffff;fill-opacity:1;fill-rule:nonzero;stroke:none"
             inkscape:connector-curvature="0" /></g><g
           transform="translate(29.5791,91.1086)"
           id="g90"><path
             d="m 0,0 h -4.293 v 1.366 c 0,1.288 0.596,1.788 2.127,1.788 C -0.628,3.154 0,2.638 0,1.374 Z m -2.166,2.945 c -1.42,0 -1.948,-0.431 -1.948,-1.59 V 0.294 c 0,-0.056 0.046,-0.102 0.102,-0.102 h 3.737 c 0.055,0 0.101,0.046 0.101,0.102 v 1.068 c 0,1.14 -0.557,1.583 -1.992,1.583"
             id="path92"
             style="fill:#ffffff;fill-opacity:1;fill-rule:nonzero;stroke:none"
             inkscape:connector-curvature="0" /></g><g
           transform="translate(29.3659,97.1189)"
           id="g94"><path
             d="m 0,0 -0.156,0.029 c 0.194,0.343 0.286,0.707 0.286,1.133 0,0.751 -0.376,1.182 -1.033,1.182 -0.645,0 -0.845,-0.576 -1.04,-1.134 -0.212,-0.604 -0.412,-1.176 -1.118,-1.176 -0.693,0 -1.09,0.471 -1.09,1.295 0,0.379 0.068,0.734 0.196,1.036 L -3.801,2.334 C -3.93,1.992 -3.989,1.685 -3.989,1.349 c 0,-1.058 0.692,-1.14 0.904,-1.14 0.601,0 0.792,0.556 0.977,1.094 0.215,0.627 0.418,1.221 1.182,1.221 0.79,0 1.224,-0.484 1.224,-1.362 C 0.298,0.736 0.198,0.345 0,0"
             id="path96"
             style="fill:#ffffff;fill-opacity:1;fill-rule:nonzero;stroke:none"
             inkscape:connector-curvature="0" /></g><g
           transform="translate(27.3847,100.6533)"
           id="g98"><path
             d="m 0,0 c -1.521,0 -2.17,0.536 -2.17,1.791 0,0.348 0.085,0.717 0.175,0.94 L -1.836,2.706 C -1.938,2.436 -1.997,2.111 -1.997,1.81 -1.997,0.669 -1.419,0.204 0,0.204 c 1.494,0 2.104,0.472 2.104,1.626 0,0.321 -0.061,0.621 -0.185,0.893 L 2.055,2.749 C 2.169,2.511 2.279,2.15 2.279,1.78 2.279,0.533 1.597,0 0,0"
             id="path100"
             style="fill:#ffffff;fill-opacity:1;fill-rule:nonzero;stroke:none"
             inkscape:connector-curvature="0" /></g><path
           d="m 29.579,104.637 h -4.293 v 0.193 h 4.293 z"
           id="path102"
           style="fill:#ffffff;fill-opacity:1;fill-rule:nonzero;stroke:none"
           inkscape:connector-curvature="0" /><g
           transform="translate(29.5791,106.3728)"
           id="g104"><path
             d="M 0,0 H -4.293 V 2.451 L -4.127,2.46 V 0.287 c 0,-0.055 0.047,-0.102 0.102,-0.102 h 1.601 c 0.056,0 0.102,0.047 0.102,0.102 v 1.872 h 0.133 V 0.287 c 0,-0.055 0.047,-0.102 0.102,-0.102 h 1.816 c 0.056,0 0.103,0.047 0.103,0.102 V 2.568 L 0,2.559 Z"
             id="path106"
             style="fill:#ffffff;fill-opacity:1;fill-rule:nonzero;stroke:none"
             inkscape:connector-curvature="0" /></g><g
           transform="translate(29.5791,110.0645)"
           id="g108"><path
             d="m 0,0 h -4.293 v 0.233 l 3.347,2.218 0.408,0.264 c 0.039,0.025 0.052,0.078 0.039,0.121 -0.014,0.042 -0.056,0.077 -0.099,0.077 H -0.601 L -1.08,2.902 -4.293,2.896 V 3.044 H 0 V 2.91 L -3.433,0.612 -3.841,0.348 C -3.879,0.324 -3.891,0.271 -3.879,0.227 -3.866,0.184 -3.822,0.148 -3.776,0.148 l 0.485,0.007 H 0 Z"
             id="path110"
             style="fill:#ffffff;fill-opacity:1;fill-rule:nonzero;stroke:none"
             inkscape:connector-curvature="0" /></g><g
           transform="translate(27.3847,114.3723)"
           id="g112"><path
             d="m 0,0 c -1.521,0 -2.17,0.536 -2.17,1.794 0,0.343 0.085,0.717 0.175,0.937 L -1.838,2.707 C -1.938,2.439 -1.997,2.114 -1.997,1.811 -1.997,0.67 -1.419,0.205 0,0.205 c 1.494,0 2.104,0.47 2.104,1.625 0,0.321 -0.061,0.621 -0.185,0.896 L 2.055,2.752 C 2.169,2.513 2.279,2.153 2.279,1.782 2.279,0.533 1.597,0 0,0"
             id="path114"
             style="fill:#ffffff;fill-opacity:1;fill-rule:nonzero;stroke:none"
             inkscape:connector-curvature="0" /></g><g
           transform="translate(29.5791,118.3046)"
           id="g116"><path
             d="m 0,0 h -4.293 v 2.45 l 0.166,0.009 V 0.287 c 0,-0.055 0.047,-0.102 0.102,-0.102 h 1.601 c 0.056,0 0.102,0.047 0.102,0.102 v 1.872 h 0.133 V 0.287 c 0,-0.055 0.047,-0.102 0.102,-0.102 h 1.816 c 0.056,0 0.103,0.047 0.103,0.102 v 2.28 L 0,2.558 Z"
             id="path118"
             style="fill:#ffffff;fill-opacity:1;fill-rule:nonzero;stroke:none"
             inkscape:connector-curvature="0" /></g><g
           transform="translate(29.3659,121.9107)"
           id="g120"><path
             d="m 0,0 -0.158,0.031 c 0.193,0.341 0.288,0.712 0.288,1.133 0,0.751 -0.376,1.18 -1.033,1.18 -0.645,0 -0.845,-0.576 -1.04,-1.132 -0.212,-0.604 -0.412,-1.175 -1.118,-1.175 -0.693,0 -1.09,0.472 -1.09,1.295 0,0.377 0.068,0.733 0.196,1.034 L -3.801,2.335 C -3.93,1.994 -3.989,1.686 -3.989,1.349 c 0,-0.839 0.467,-1.139 0.904,-1.139 0.601,0 0.792,0.556 0.977,1.094 0.215,0.628 0.418,1.221 1.182,1.221 0.79,0 1.224,-0.483 1.224,-1.361 C 0.298,0.737 0.198,0.348 0,0"
             id="path122"
             style="fill:#ffffff;fill-opacity:1;fill-rule:nonzero;stroke:none"
             inkscape:connector-curvature="0" /></g><g
           transform="translate(22.7734,22.5923)"
           id="g124"><path
             d="M 0,0 H -4.292 V 2.67 L -3.73,2.682 V 0.724 c 0,-0.055 0.046,-0.102 0.102,-0.102 h 1.151 c 0.056,0 0.102,0.047 0.102,0.102 V 2.342 L -1.852,2.339 V 0.724 c 0,-0.055 0.047,-0.102 0.103,-0.102 H 0 Z"
             id="path126"
             style="fill:#ffffff;fill-opacity:1;fill-rule:nonzero;stroke:none"
             inkscape:connector-curvature="0" /></g><g
           transform="translate(22.7741,26.2207)"
           id="g128"><path
             d="m 0,0 h -4.294 v 0.621 h 1.703 c 0.056,0 0.103,0.047 0.103,0.103 v 1.829 c 0,0.056 -0.047,0.103 -0.103,0.103 H -4.294 V 3.278 H 0 V 2.656 h -1.829 c -0.056,0 -0.102,-0.047 -0.102,-0.103 V 0.724 c 0,-0.056 0.046,-0.103 0.102,-0.103 H 0 Z"
             id="path130"
             style="fill:#ffffff;fill-opacity:1;fill-rule:nonzero;stroke:none"
             inkscape:connector-curvature="0" /></g><g
           transform="translate(22.7748,32.0039)"
           id="g132"><path
             d="M 0,0 -4.293,1.529 V 2.376 L 0,3.915 V 3.207 L -0.893,2.935 C -0.937,2.921 -0.966,2.882 -0.966,2.837 v -1.8 c 0,-0.045 0.029,-0.083 0.073,-0.097 L 0,0.664 Z m -1.565,2.724 c -0.011,0 -0.021,-0.002 -0.03,-0.005 L -3.353,2.179 -3.817,2.053 C -3.861,2.042 -3.891,1.992 -3.893,1.948 c 0,-0.047 0.029,-0.097 0.073,-0.11 l 0.467,-0.137 1.758,-0.545 c 0.009,-0.004 0.019,-0.005 0.028,-0.005 0.022,0 0.044,0.008 0.062,0.02 0.026,0.019 0.042,0.05 0.042,0.082 v 1.368 c 0,0.033 -0.016,0.063 -0.042,0.082 -0.018,0.013 -0.039,0.021 -0.06,0.021"
             id="path134"
             style="fill:#ffffff;fill-opacity:1;fill-rule:nonzero;stroke:none"
             inkscape:connector-curvature="0" /></g><g
           transform="translate(22.7741,36.4747)"
           id="g136"><path
             d="M 0,0 -4.293,1.529 V 2.376 L 0,3.915 V 3.206 L -0.893,2.934 C -0.936,2.92 -0.965,2.881 -0.965,2.837 V 1.036 c 0,-0.044 0.029,-0.083 0.072,-0.097 L 0,0.664 Z m -1.564,2.723 c -0.011,0 -0.02,-10e-4 -0.03,-0.004 L -3.352,2.178 -3.816,2.053 C -3.859,2.042 -3.891,1.992 -3.892,1.948 c 0,-0.047 0.03,-0.097 0.073,-0.109 l 0.467,-0.138 1.758,-0.545 c 0.01,-0.003 0.019,-0.005 0.028,-0.005 0.022,0 0.043,0.008 0.062,0.021 0.027,0.018 0.042,0.049 0.042,0.082 v 1.367 c 0,0.033 -0.015,0.062 -0.042,0.082 -0.019,0.012 -0.038,0.02 -0.06,0.02"
             id="path138"
             style="fill:#ffffff;fill-opacity:1;fill-rule:nonzero;stroke:none"
             inkscape:connector-curvature="0" /></g><g
           transform="translate(20.5915,40.9659)"
           id="g140"><path
             d="m 0,0 c -1.493,0 -2.189,0.612 -2.189,1.928 0,0.304 0.065,0.675 0.161,0.934 L -1.506,2.797 C -1.586,2.542 -1.631,2.248 -1.631,1.97 c 0,-0.952 0.443,-1.306 1.637,-1.306 1.25,0 1.715,0.359 1.715,1.325 0,0.284 -0.051,0.56 -0.151,0.824 L 2.056,2.879 C 2.186,2.582 2.267,2.207 2.267,1.88 2.267,0.579 1.567,0 0,0"
             id="path142"
             style="fill:#ffffff;fill-opacity:1;fill-rule:nonzero;stroke:none"
             inkscape:connector-curvature="0" /></g><g
           transform="translate(22.7748,44.8235)"
           id="g144"><path
             d="m 0,0 h -4.294 v 0.621 h 1.701 c 0.056,0 0.103,0.047 0.103,0.103 v 1.83 c 0,0.056 -0.047,0.102 -0.103,0.102 H -4.294 V 3.279 H 0 V 2.656 h -1.83 c -0.056,0 -0.102,-0.046 -0.102,-0.102 v -1.83 c 0,-0.056 0.046,-0.103 0.102,-0.103 H 0 Z"
             id="path146"
             style="fill:#ffffff;fill-opacity:1;fill-rule:nonzero;stroke:none"
             inkscape:connector-curvature="0" /></g><g
           transform="translate(22.7741,49.325)"
           id="g148"><path
             d="m 0,0 h -4.293 v 2.676 l 0.544,0.009 V 0.724 c 0,-0.055 0.047,-0.101 0.103,-0.101 h 1.085 c 0.056,0 0.102,0.046 0.102,0.101 v 1.65 h 0.473 v -1.65 c 0,-0.055 0.046,-0.101 0.101,-0.101 h 1.249 c 0.055,0 0.102,0.046 0.102,0.101 V 2.778 L 0,2.766 Z"
             id="path150"
             style="fill:#ffffff;fill-opacity:1;fill-rule:nonzero;stroke:none"
             inkscape:connector-curvature="0" /></g><g
           transform="translate(22.7741,53.0934)"
           id="g152"><path
             d="m 0,0 h -4.294 v 0.565 l 2.582,1.763 0.402,0.267 c 0.037,0.026 0.051,0.079 0.037,0.122 -0.014,0.042 -0.054,0.078 -0.1,0.078 H -1.376 L -1.857,2.782 H -4.294 V 3.31 H 0 V 2.883 L -2.697,0.995 -3.103,0.727 C -3.141,0.702 -3.153,0.65 -3.141,0.606 -3.127,0.563 -3.082,0.528 -3.037,0.528 l 0.484,0.006 H 0 Z"
             id="path154"
             style="fill:#ffffff;fill-opacity:1;fill-rule:nonzero;stroke:none"
             inkscape:connector-curvature="0" /></g><path
           d="M 11.236,56.404 H -34.016 V 22.592 h 45.252 z"
           id="path156"
           style="fill:#cfeee4;fill-opacity:1;fill-rule:nonzero;stroke:none"
           inkscape:connector-curvature="0" /><g
           transform="translate(11.3381,56.5057)"
           id="g158"><path
             d="M 0,0 H -5.669 -45.354 V -34.016 H 0 Z"
             id="path160"
             style="fill:#231f20;fill-opacity:1;fill-rule:nonzero;stroke:none"
             inkscape:connector-curvature="0" /></g><g
           transform="translate(11.3381,90.5224)"
           id="g162"><path
             d="M 0,0 H -5.669 -45.354 V -34.017 H 0 Z"
             id="path164"
             style="fill:#ffffff;fill-opacity:1;fill-rule:nonzero;stroke:none"
             inkscape:connector-curvature="0" /></g><g
           transform="translate(11.3381,124.5372)"
           id="g166"><path
             d="M 0,0 H -5.669 -45.354 V -34.015 H 0 Z"
             id="path168"
             style="fill:#40beaa;fill-opacity:1;fill-rule:nonzero;stroke:none"
             inkscape:connector-curvature="0" /></g><g
           transform="translate(28.0564,25.8055)"
           id="g170"><path
             d="M 0,0 C 1.206,0 1.709,-0.612 1.709,-1.655 1.709,-2.704 1.206,-3.316 0,-3.316 H -2.873 V -2.92 H 0 c 0.923,0 1.326,0.42 1.326,1.265 0,0.84 -0.415,1.259 -1.326,1.259 H -2.873 V 0 Z"
             id="path172"
             style="fill:#231f20;fill-opacity:1;fill-rule:nonzero;stroke:none"
             inkscape:connector-curvature="0" /></g><g
           transform="translate(29.6808,29.9839)"
           id="g174"><path
             d="m 0,0 -3.478,-2.327 -0.408,-0.264 0.007,-0.012 0.485,0.007 H 0 v -0.36 h -4.497 v 0.39 l 3.394,2.248 0.407,0.265 -0.006,0.011 -0.479,-0.011 -3.316,-0.007 V 0.293 H 0 Z"
             id="path176"
             style="fill:#231f20;fill-opacity:1;fill-rule:nonzero;stroke:none"
             inkscape:connector-curvature="0" /></g><g
           transform="translate(25.1838,31.6011)"
           id="g178"><path
             d="M 0,0 V 0.242 0.396 H 4.497 V 0 Z"
             id="path180"
             style="fill:#231f20;fill-opacity:1;fill-rule:nonzero;stroke:none"
             inkscape:connector-curvature="0" /></g><g
           transform="translate(25.1838,36.6878)"
           id="g182"><path
             d="M 0,0 4.497,-1.637 V -2.098 L 0,-3.735 v 0.437 l 3.658,1.283 0.461,0.15 v 0.019 L 3.664,-1.697 0,-0.414 Z"
             id="path184"
             style="fill:#231f20;fill-opacity:1;fill-rule:nonzero;stroke:none"
             inkscape:connector-curvature="0" /></g><g
           transform="translate(29.3088,40.3858)"
           id="g186"><path
             d="m 0,0 0.372,-0.019 v -2.758 h -4.497 v 2.651 l 0.371,0.017 v -2.279 h 1.601 v 1.973 h 0.337 V -2.388 H 0 Z"
             id="path188"
             style="fill:#231f20;fill-opacity:1;fill-rule:nonzero;stroke:none"
             inkscape:connector-curvature="0" /></g><g
           transform="translate(27.589,43.1954)"
           id="g190"><path
             d="M 0,0 2.092,1.252 V 0.773 L 0.07,-0.378 v -1.044 h 2.022 v -0.396 h -4.497 v 1.458 c 0,0.906 0.395,1.319 1.217,1.319 C -0.457,0.959 -0.073,0.623 0,0 m -2.052,-0.36 v -1.062 h 1.799 v 1.025 c 0,0.655 -0.264,0.948 -0.917,0.948 -0.63,0 -0.882,-0.281 -0.882,-0.911"
             id="path192"
             style="fill:#231f20;fill-opacity:1;fill-rule:nonzero;stroke:none"
             inkscape:connector-curvature="0" /></g><g
           transform="translate(29.7658,46.4181)"
           id="g194"><path
             d="m 0,0 c 0,-0.516 -0.139,-0.935 -0.349,-1.277 l -0.372,0.071 c 0.229,0.348 0.349,0.732 0.349,1.206 0,0.713 -0.349,1.08 -0.93,1.08 -1.206,0 -0.677,-2.309 -2.159,-2.309 -0.677,0 -1.193,0.432 -1.193,1.397 0,0.438 0.09,0.834 0.239,1.151 L -4.061,1.248 C -4.204,0.905 -4.288,0.576 -4.288,0.186 c 0,-0.744 0.377,-1.037 0.803,-1.037 1.146,0 0.605,2.314 2.159,2.314 C -0.504,1.463 0,0.959 0,0"
             id="path196"
             style="fill:#231f20;fill-opacity:1;fill-rule:nonzero;stroke:none"
             inkscape:connector-curvature="0" /></g><g
           transform="translate(25.1838,48.9632)"
           id="g198"><path
             d="M 0,0 V 0.223 0.396 H 4.497 V 0 Z"
             id="path200"
             style="fill:#231f20;fill-opacity:1;fill-rule:nonzero;stroke:none"
             inkscape:connector-curvature="0" /></g><g
           transform="translate(25.5676,52.0299)"
           id="g202"><path
             d="M 0,0 H 4.113 V -0.395 H 0 v -1.41 l -0.384,0.012 V 1.41 L 0,1.415 Z"
             id="path204"
             style="fill:#231f20;fill-opacity:1;fill-rule:nonzero;stroke:none"
             inkscape:connector-curvature="0" /></g><g
           transform="translate(25.1838,54.3297)"
           id="g206"><path
             d="M 0,0 2.104,1.115 2.536,1.332 V 1.349 L 2.104,1.559 0,2.669 V 3.113 L 2.921,1.535 H 4.497 V 1.134 H 2.921 L 0,-0.461 Z"
             id="path208"
             style="fill:#231f20;fill-opacity:1;fill-rule:nonzero;stroke:none"
             inkscape:connector-curvature="0" /></g><g
           transform="translate(29.7658,61.7125)"
           id="g210"><path
             d="m 0,0 c 0,-1.295 -0.667,-1.793 -2.333,-1.793 -1.668,0 -2.321,0.492 -2.321,1.793 0,1.308 0.653,1.793 2.321,1.793 C -0.661,1.793 0,1.308 0,0 m -4.276,0 c 0,-0.989 0.425,-1.385 1.943,-1.385 1.511,0 1.949,0.396 1.949,1.391 0,0.989 -0.438,1.38 -1.949,1.38 -1.518,0 -1.943,-0.391 -1.943,-1.386"
             id="path212"
             style="fill:#231f20;fill-opacity:1;fill-rule:nonzero;stroke:none"
             inkscape:connector-curvature="0" /></g><g
           transform="translate(25.5676,65.0055)"
           id="g214"><path
             d="m 0,0 h 1.625 v 1.908 h 0.36 V 0 H 4.113 V -0.395 H -0.384 V 2.256 L 0,2.268 Z"
             id="path216"
             style="fill:#231f20;fill-opacity:1;fill-rule:nonzero;stroke:none"
             inkscape:connector-curvature="0" /></g><g
           transform="translate(28.4929,72.3781)"
           id="g218"><path
             d="M 0,0 V -2.164 L 1.188,-2.59 v -0.426 l -4.497,1.709 v 0.468 L 1.188,0.87 V 0.427 Z m -2.555,-1.235 2.202,-0.798 v 1.907 l -2.202,-0.785 -0.46,-0.15 v -0.018 z"
             id="path220"
             style="fill:#231f20;fill-opacity:1;fill-rule:nonzero;stroke:none"
             inkscape:connector-curvature="0" /></g><g
           transform="translate(27.8644,75.593)"
           id="g222"><path
             d="M 0,0 V -1.038 H 1.816 V -1.433 H -2.681 V 0 c 0,1.019 0.396,1.463 1.338,1.463 C -0.438,1.463 0,1.031 0,0 m -2.328,0 v -1.038 h 1.985 V 0 c 0,0.702 -0.239,1.062 -1,1.062 -0.72,0 -0.985,-0.343 -0.985,-1.062"
             id="path224"
             style="fill:#231f20;fill-opacity:1;fill-rule:nonzero;stroke:none"
             inkscape:connector-curvature="0" /></g><g
           transform="translate(27.8644,79.4759)"
           id="g226"><path
             d="M 0,0 V -1.037 H 1.816 V -1.434 H -2.681 V 0 c 0,1.02 0.396,1.462 1.338,1.462 C -0.438,1.462 0,1.031 0,0 m -2.328,0 v -1.037 h 1.985 V 0 c 0,0.702 -0.239,1.061 -1,1.061 -0.72,0 -0.985,-0.342 -0.985,-1.061"
             id="path228"
             style="fill:#231f20;fill-opacity:1;fill-rule:nonzero;stroke:none"
             inkscape:connector-curvature="0" /></g><g
           transform="translate(29.2971,84.5516)"
           id="g230"><path
             d="m 0,0 0.384,-0.018 v -2.608 h -4.497 v 0.395 H 0 Z"
             id="path232"
             style="fill:#231f20;fill-opacity:1;fill-rule:nonzero;stroke:none"
             inkscape:connector-curvature="0" /></g><g
           transform="translate(25.1838,85.5023)"
           id="g234"><path
             d="M 0,0 V 0.224 0.395 H 4.497 V 0 Z"
             id="path236"
             style="fill:#231f20;fill-opacity:1;fill-rule:nonzero;stroke:none"
             inkscape:connector-curvature="0" /></g><g
           transform="translate(29.3088,90.014)"
           id="g238"><path
             d="m 0,0 0.372,-0.019 v -2.758 h -4.497 v 2.651 l 0.371,0.018 v -2.28 h 1.601 v 1.973 h 0.337 V -2.388 H 0 Z"
             id="path240"
             style="fill:#231f20;fill-opacity:1;fill-rule:nonzero;stroke:none"
             inkscape:connector-curvature="0" /></g><g
           transform="translate(29.6808,92.4823)"
           id="g242"><path
             d="m 0,0 v -1.475 h -4.497 v 1.468 c 0,1.325 0.636,1.889 2.229,1.889 C -0.624,1.882 0,1.277 0,0 M -4.113,-0.019 V -1.08 h 3.735 v 1.068 c 0,0.989 -0.401,1.481 -1.89,1.481 -1.419,0 -1.845,-0.445 -1.845,-1.488"
             id="path244"
             style="fill:#231f20;fill-opacity:1;fill-rule:nonzero;stroke:none"
             inkscape:connector-curvature="0" /></g><g
           transform="translate(29.7658,98.2817)"
           id="g246"><path
             d="m 0,0 c 0,-0.516 -0.139,-0.936 -0.349,-1.277 l -0.372,0.071 c 0.229,0.348 0.349,0.731 0.349,1.206 0,0.713 -0.349,1.08 -0.93,1.08 -1.206,0 -0.677,-2.311 -2.159,-2.311 -0.677,0 -1.193,0.433 -1.193,1.398 0,0.438 0.09,0.833 0.239,1.151 L -4.061,1.247 C -4.204,0.905 -4.288,0.576 -4.288,0.186 c 0,-0.744 0.377,-1.039 0.803,-1.039 1.146,0 0.605,2.316 2.159,2.316 C -0.504,1.463 0,0.959 0,0"
             id="path248"
             style="fill:#231f20;fill-opacity:1;fill-rule:nonzero;stroke:none"
             inkscape:connector-curvature="0" /></g><g
           transform="translate(25.6921,103.4409)"
           id="g250"><path
             d="m 0,0 c -0.113,-0.246 -0.202,-0.605 -0.202,-0.977 0,-1.026 0.467,-1.504 1.894,-1.504 1.523,0 2.004,0.484 2.004,1.523 0,0.376 -0.091,0.7 -0.235,0.97 l 0.342,0.066 c 0.145,-0.27 0.271,-0.683 0.271,-1.086 0,-1.307 -0.727,-1.882 -2.382,-1.882 -1.576,0 -2.272,0.589 -2.272,1.894 0,0.379 0.101,0.816 0.215,1.05 z"
             id="path252"
             style="fill:#231f20;fill-opacity:1;fill-rule:nonzero;stroke:none"
             inkscape:connector-curvature="0" /></g><g
           transform="translate(25.1838,104.5351)"
           id="g254"><path
             d="M 0,0 V 0.222 0.397 H 4.497 V 0 Z"
             id="path256"
             style="fill:#231f20;fill-opacity:1;fill-rule:nonzero;stroke:none"
             inkscape:connector-curvature="0" /></g><g
           transform="translate(29.3088,109.0482)"
           id="g258"><path
             d="m 0,0 0.372,-0.019 v -2.758 h -4.497 v 2.65 l 0.371,0.019 v -2.28 h 1.601 v 1.973 h 0.337 V -2.388 H 0 Z"
             id="path260"
             style="fill:#231f20;fill-opacity:1;fill-rule:nonzero;stroke:none"
             inkscape:connector-curvature="0" /></g><g
           transform="translate(29.6808,112.9184)"
           id="g262"><path
             d="m 0,0 -3.478,-2.326 -0.408,-0.265 0.007,-0.012 0.485,0.006 H 0 v -0.359 h -4.497 v 0.39 l 3.394,2.248 0.407,0.264 -0.006,0.011 -0.479,-0.011 -3.316,-0.006 V 0.293 H 0 Z"
             id="path264"
             style="fill:#231f20;fill-opacity:1;fill-rule:nonzero;stroke:none"
             inkscape:connector-curvature="0" /></g><g
           transform="translate(25.6921,117.162)"
           id="g266"><path
             d="m 0,0 c -0.113,-0.246 -0.202,-0.606 -0.202,-0.979 0,-1.025 0.467,-1.504 1.894,-1.504 1.523,0 2.004,0.485 2.004,1.524 0,0.376 -0.091,0.7 -0.235,0.971 l 0.342,0.064 c 0.145,-0.269 0.271,-0.682 0.271,-1.084 0,-1.308 -0.727,-1.884 -2.382,-1.884 -1.576,0 -2.272,0.589 -2.272,1.896 0,0.378 0.101,0.814 0.215,1.049 z"
             id="path268"
             style="fill:#231f20;fill-opacity:1;fill-rule:nonzero;stroke:none"
             inkscape:connector-curvature="0" /></g><g
           transform="translate(29.3088,120.978)"
           id="g270"><path
             d="m 0,0 0.372,-0.018 v -2.758 h -4.497 v 2.65 l 0.371,0.018 v -2.278 h 1.601 v 1.973 h 0.337 V -2.386 H 0 Z"
             id="path272"
             style="fill:#231f20;fill-opacity:1;fill-rule:nonzero;stroke:none"
             inkscape:connector-curvature="0" /></g><g
           transform="translate(29.7658,123.0742)"
           id="g274"><path
             d="m 0,0 c 0,-0.516 -0.139,-0.935 -0.349,-1.277 l -0.372,0.071 c 0.229,0.349 0.349,0.733 0.349,1.206 0,0.713 -0.349,1.08 -0.93,1.08 -1.206,0 -0.677,-2.309 -2.159,-2.309 -0.677,0 -1.193,0.432 -1.193,1.397 0,0.438 0.09,0.834 0.239,1.152 L -4.061,1.248 C -4.204,0.905 -4.288,0.576 -4.288,0.186 c 0,-0.744 0.377,-1.037 0.803,-1.037 1.146,0 0.605,2.314 2.159,2.314 C -0.504,1.463 0,0.959 0,0"
             id="path276"
             style="fill:#231f20;fill-opacity:1;fill-rule:nonzero;stroke:none"
             inkscape:connector-curvature="0" /></g><g
           transform="translate(19.1457,23.3167)"
           id="g278"><path
             d="M 0,0 H 1.151 V 1.721 L 1.878,1.715 V 0 H 3.731 V -0.827 H -0.768 V 2.045 L 0,2.063 Z"
             id="path280"
             style="fill:#231f20;fill-opacity:1;fill-rule:nonzero;stroke:none"
             inkscape:connector-curvature="0" /></g><g
           transform="translate(22.8766,28.7747)"
           id="g282"><path
             d="M 0,0 H -1.932 V -1.83 H 0 v -0.827 h -4.499 v 0.827 h 1.805 V 0 H -4.499 V 0.827 H 0 Z"
             id="path284"
             style="fill:#231f20;fill-opacity:1;fill-rule:nonzero;stroke:none"
             inkscape:connector-curvature="0" /></g><g
           transform="translate(21.9113,34.8407)"
           id="g286"><path
             d="M 0,0 V -1.8 L 0.965,-2.098 V -2.98 l -4.498,1.601 v 0.989 l 4.498,1.614 v -0.93 z m -2.459,-1.038 1.757,-0.545 v 1.367 L -2.459,-0.755 -2.927,-0.881 V -0.9 Z"
             id="path288"
             style="fill:#231f20;fill-opacity:1;fill-rule:nonzero;stroke:none"
             inkscape:connector-curvature="0" /></g><g
           transform="translate(21.9113,39.3113)"
           id="g290"><path
             d="M 0,0 V -1.8 L 0.965,-2.098 V -2.98 l -4.498,1.601 v 0.989 l 4.498,1.614 v -0.93 z m -2.459,-1.038 1.757,-0.545 v 1.367 L -2.459,-0.755 -2.927,-0.881 V -0.9 Z"
             id="path292"
             style="fill:#231f20;fill-opacity:1;fill-rule:nonzero;stroke:none"
             inkscape:connector-curvature="0" /></g><g
           transform="translate(19.2234,43.8487)"
           id="g294"><path
             d="m 0,0 c -0.089,-0.234 -0.161,-0.564 -0.161,-0.912 0,-0.875 0.37,-1.205 1.535,-1.205 1.235,0 1.613,0.342 1.613,1.223 0,0.348 -0.078,0.648 -0.192,0.906 l 0.69,0.096 c 0.143,-0.294 0.252,-0.72 0.252,-1.11 0,-1.349 -0.75,-1.984 -2.369,-1.984 -1.523,0 -2.291,0.629 -2.291,2.032 0,0.367 0.089,0.792 0.198,1.043 z"
             id="path296"
             style="fill:#231f20;fill-opacity:1;fill-rule:nonzero;stroke:none"
             inkscape:connector-curvature="0" /></g><g
           transform="translate(22.8766,47.3775)"
           id="g298"><path
             d="M 0,0 H -1.932 V -1.83 H 0 v -0.826 h -4.499 v 0.826 h 1.805 V 0 H -4.499 V 0.828 H 0 Z"
             id="path300"
             style="fill:#231f20;fill-opacity:1;fill-rule:nonzero;stroke:none"
             inkscape:connector-curvature="0" /></g><g
           transform="translate(22.1384,52.2086)"
           id="g302"><path
             d="M 0,0 0.738,-0.018 V -2.985 H -3.76 v 2.878 l 0.75,0.012 v -2.064 h 1.085 v 1.752 h 0.677 V -2.159 H 0 Z"
             id="path304"
             style="fill:#231f20;fill-opacity:1;fill-rule:nonzero;stroke:none"
             inkscape:connector-curvature="0" /></g><g
           transform="translate(22.8766,55.9234)"
           id="g306"><path
             d="m 0,0 -2.741,-1.919 -0.408,-0.269 0.007,-0.012 0.485,0.006 H 0 v -0.738 h -4.499 v 0.72 l 2.627,1.793 0.401,0.27 -0.004,0.011 -0.481,-0.011 H -4.499 V 0.582 H 0 Z"
             id="path308"
             style="fill:#231f20;fill-opacity:1;fill-rule:nonzero;stroke:none"
             inkscape:connector-curvature="0" /></g></g></g></g></svg>